<svg version="1.1" id="Layer_1" xmlns="http://www.w3.org/2000/svg" xmlns:xlink="http://www.w3.org/1999/xlink" x="0px" y="0px"
	 width="100%" viewBox="0 0 1024 1024" enable-background="new 0 0 1024 1024" xml:space="preserve">
<path fill="#000000" opacity="1.000000" stroke="none" 
	d="
M672.082336,100.945816 
	C681.315918,97.003151 690.163635,93.128792 699.093384,89.453499 
	C703.525146,87.629486 707.963318,85.678070 713.027527,86.399933 
	C723.872803,87.945839 729.713806,96.480621 726.437134,106.934647 
	C716.986206,137.087296 707.301392,167.166595 697.720764,197.278656 
	C682.645752,244.659729 667.500183,292.018707 652.616150,339.459747 
	C650.798096,345.254639 648.972290,348.620361 641.752563,348.818024 
	C633.619385,349.040680 625.553894,351.738861 616.241333,353.604187 
	C636.995117,288.149963 657.528015,223.392426 678.116821,158.458420 
	C675.137329,158.031906 674.311890,159.757065 673.193298,160.860138 
	C637.359436,196.195740 601.612976,231.620163 565.719788,266.895294 
	C511.883606,319.804413 457.940796,372.604950 404.063934,425.472656 
	C399.545502,429.906494 395.459595,434.821564 390.672363,438.929993 
	C385.598175,443.284729 384.510132,448.605194 385.461517,454.621246 
	C387.081970,464.868378 386.181519,475.221283 387.110962,485.521088 
	C388.230743,497.930145 388.015778,510.460449 388.346771,522.939087 
	C388.395966,524.792664 388.569885,526.587830 389.675629,528.656250 
	C393.326233,523.892151 395.609650,518.578430 398.309570,513.550659 
	C405.716766,499.757172 412.922394,485.855316 420.192474,471.988342 
	C425.773315,461.343506 436.257874,459.411102 445.537689,467.122528 
	C461.039612,480.004547 476.580780,492.842224 492.278778,505.483337 
	C495.961914,508.449249 497.675415,511.490784 497.457794,516.392334 
	C496.973907,527.290161 496.721924,538.236572 499.344788,549.043152 
	C498.907562,549.316589 498.470337,549.589966 498.033112,549.863403 
	C478.871521,534.341675 459.709930,518.819946 440.737396,503.451324 
	C438.145599,504.138397 437.810333,506.139923 437.017029,507.696991 
	C422.419281,536.349060 406.499023,564.274658 390.572144,592.194824 
	C385.876282,600.426819 380.684784,602.924866 372.598419,601.327637 
	C365.896942,600.003967 361.897369,594.630310 360.498383,586.128113 
	C358.811096,575.873901 359.591095,565.526428 358.983582,555.234619 
	C357.640259,532.478271 357.825500,509.631256 356.461792,486.876678 
	C355.714752,474.411499 356.242828,461.903229 354.803467,449.468201 
	C354.485657,446.722504 353.240204,445.395355 351.115875,444.117889 
	C325.996002,429.011932 300.925385,413.824066 275.812897,398.705750 
	C244.848984,380.064697 213.873047,361.443451 182.864944,342.876038 
	C177.026352,339.379944 174.094040,334.475311 174.373947,327.641541 
	C174.669434,320.427277 178.669891,316.160156 185.033722,313.382355 
	C237.069504,290.668793 289.077728,267.892029 341.086761,245.117233 
	C385.624146,225.614273 430.116516,206.007996 474.692383,186.593521 
	C529.341736,162.791687 584.057800,139.143021 638.743774,115.425354 
	C649.742065,110.655334 660.734985,105.872925 672.082336,100.945816 
M410.303986,249.977264 
	C348.736053,276.810516 287.168121,303.643768 225.649246,330.455627 
	C226.431473,333.268646 228.440308,333.697510 229.913315,334.591888 
	C270.904053,359.481232 311.902679,384.357941 352.977631,409.107880 
	C357.605408,411.896362 362.177368,417.348236 367.176666,416.328247 
	C372.029877,415.338074 375.710358,409.812805 379.634430,405.955383 
	C417.409241,368.821747 455.242432,331.747467 493.002563,294.598938 
	C537.057678,251.257385 581.040283,207.842163 625.108643,164.514069 
	C628.861694,160.824036 633.022034,157.548294 636.993164,154.080078 
	C636.442749,153.349579 635.892395,152.619080 635.341980,151.888565 
	C560.558289,184.476273 485.774628,217.063965 410.303986,249.977264 
z"/>
<path fill="#000000" opacity="1.000000" stroke="none" 
	d="
M572.979736,636.031799 
	C544.992432,610.346436 528.565491,578.835815 523.883118,541.642334 
	C513.835205,461.829346 566.789185,388.424622 644.283997,373.618225 
	C686.127625,365.623444 724.477844,374.908356 759.886353,397.840942 
	C764.485168,400.819397 768.865051,404.135773 774.012634,407.765411 
	C778.866516,401.974731 784.076660,396.450684 789.555969,391.196014 
	C793.928894,387.002319 799.118530,386.512268 804.392334,388.482574 
	C809.522766,390.399323 812.025635,394.621399 812.376282,400.122375 
	C812.481079,401.767700 812.986877,403.383453 813.174194,405.028107 
	C815.257996,423.328705 817.261658,441.638672 819.425415,459.929718 
	C819.855347,463.564209 820.419678,467.156311 820.364502,470.839325 
	C820.234619,479.502747 815.414673,484.606140 806.647278,484.279816 
	C797.188843,483.927795 787.745667,483.031250 778.311462,482.196014 
	C764.906982,481.009216 751.525024,479.564148 738.116638,478.427795 
	C732.324158,477.936859 727.705811,475.784210 725.476624,470.258698 
	C723.227722,464.684174 725.236511,459.871399 729.104248,455.653717 
	C735.603638,448.566589 742.090393,441.467896 748.825073,434.108948 
	C743.511292,428.895508 737.738647,425.276489 731.913391,421.852905 
	C716.643433,412.878601 700.253723,407.627502 682.445496,406.151825 
	C622.536194,401.187439 569.777466,442.325195 558.628174,500.695465 
	C546.263306,565.429871 589.370483,627.112549 652.568909,638.319092 
	C719.825500,650.245239 776.131042,603.808350 787.500977,543.965027 
	C788.180176,540.390442 788.431946,536.716553 788.644775,533.074951 
	C789.192505,523.703857 796.839783,516.448730 806.070984,516.690979 
	C815.103394,516.928101 822.500977,524.332458 822.277893,533.629028 
	C821.710510,557.278015 814.719727,579.244873 802.719543,599.376526 
	C778.515015,639.982361 743.236755,665.706177 696.281189,672.924927 
	C649.909363,680.054016 608.656250,667.286011 572.979736,636.031799 
z"/>
<path fill="#000000" opacity="1.000000" stroke="none" 
	d="
M638.280518,844.774780 
	C642.367310,851.051941 646.257874,857.025024 650.870483,864.106567 
	C650.870483,849.155212 650.863831,835.431274 650.873413,821.707397 
	C650.878052,815.045044 650.956970,808.382507 650.916077,801.720520 
	C650.895203,798.311646 652.024780,796.401978 655.865112,796.621216 
	C659.849792,796.848694 663.857971,796.734863 667.854126,796.666626 
	C671.018616,796.612610 672.386963,798.087036 672.344604,801.213928 
	C672.276855,806.209717 672.338867,811.207214 672.338928,816.203979 
	C672.339233,842.020874 672.344604,867.837708 672.330872,893.654602 
	C672.327393,900.208069 672.163147,900.343018 665.589294,900.389038 
	C651.042358,900.490967 651.079712,900.466675 642.947937,887.932068 
	C632.619934,872.011963 622.229736,856.132263 611.847351,840.247437 
	C610.881836,838.770264 609.779602,837.382385 608.172791,835.171387 
	C608.172791,855.062256 608.178955,873.981262 608.169678,892.900269 
	C608.166016,900.351685 608.132874,900.369019 600.618896,900.388489 
	C586.657959,900.424744 586.657593,900.424744 586.657043,886.619507 
	C586.655884,858.803894 586.753967,830.987671 586.559631,803.173401 
	C586.526184,798.382080 587.497925,796.352661 592.831299,796.552124 
	C609.179810,797.163818 604.702942,794.296631 613.827393,807.810364 
	C622.026611,819.953735 630.007202,832.244690 638.280518,844.774780 
z"/>
<path fill="#000000" opacity="1.000000" stroke="none" 
	d="
M722.969604,796.659912 
	C738.880981,796.858521 753.714722,799.085083 765.909912,809.663513 
	C779.567810,821.510803 784.123291,836.638184 782.696350,854.404724 
	C780.639832,880.009583 757.605103,901.367981 728.608276,900.436218 
	C718.288269,900.104553 707.947571,900.286438 697.618896,900.422913 
	C694.073608,900.469727 692.590149,899.381165 692.603882,895.585205 
	C692.716858,864.260559 692.712036,832.935242 692.615845,801.610474 
	C692.604736,797.985718 693.754944,796.538513 697.482849,796.618347 
	C705.810059,796.796692 714.143921,796.665283 722.969604,796.659912 
M759.427795,861.801270 
	C760.060181,859.396301 760.962830,857.026550 761.281677,854.580750 
	C763.563660,837.076294 756.833496,820.600769 736.860107,816.826843 
	C731.384277,815.792236 725.591614,816.538086 719.963318,816.173218 
	C715.641846,815.893127 714.169861,817.461914 714.239075,821.875916 
	C714.473572,836.834167 714.327087,851.798401 714.325439,866.760315 
	C714.323730,882.373108 714.334534,882.553772 730.002319,881.577637 
	C743.192139,880.755798 753.633484,875.311768 759.427795,861.801270 
z"/>
<path fill="#000000" opacity="1.000000" stroke="none" 
	d="
M263.999634,796.658081 
	C271.463959,796.971497 278.440399,796.115356 285.402466,797.577271 
	C301.339050,800.923645 312.137054,811.345947 314.086548,826.837097 
	C315.740967,839.983765 312.573242,853.343140 295.341217,862.276672 
	C302.111359,874.473267 308.885345,886.676758 316.404541,900.222778 
	C308.029022,900.222778 301.298401,900.299805 294.571289,900.179443 
	C292.329987,900.139343 291.862061,897.913208 291.060822,896.354980 
	C286.491791,887.469421 282.019501,878.534180 277.477875,869.634460 
	C275.612396,865.978943 264.368927,863.423035 261.237427,865.918091 
	C259.853027,867.021118 260.205811,868.653442 260.201416,870.104614 
	C260.176666,878.268799 260.090210,886.435913 260.277039,894.596252 
	C260.374237,898.842957 258.832611,900.753784 254.435089,900.438232 
	C250.953812,900.188416 247.423615,900.165649 243.945969,900.437073 
	C239.731598,900.765991 238.561111,899.015076 238.584885,894.957947 
	C238.729431,870.299011 238.652542,845.638855 238.651627,820.979065 
	C238.651382,814.314270 238.770844,807.646790 238.613693,800.985840 
	C238.536758,797.725464 239.812119,796.567932 243.006393,796.631897 
	C249.834946,796.768616 256.668335,796.664001 263.999634,796.658081 
M266.685577,815.366150 
	C263.981110,815.670898 260.248993,814.109924 260.305634,819.195496 
	C260.394653,827.187134 260.359070,835.180420 260.334320,843.172852 
	C260.327484,845.377075 261.137878,846.605591 263.520935,846.635986 
	C269.845001,846.716553 276.192108,846.939941 282.382050,845.384094 
	C288.833984,843.762390 293.698151,836.885071 293.580597,829.911926 
	C293.459473,822.726074 289.063721,817.895447 281.545258,816.155029 
	C276.911499,815.082336 272.268097,815.560059 266.685577,815.366150 
z"/>
<path fill="#000000" opacity="1.000000" stroke="none" 
	d="
M414.336365,871.148438 
	C415.802887,870.624084 416.903534,870.244934 418.009369,869.881592 
	C427.010681,866.923706 427.011047,866.924561 432.403320,874.834290 
	C438.443054,883.693787 454.709686,885.938232 462.816864,879.030640 
	C467.456909,875.077148 467.330048,868.620361 462.420502,864.260925 
	C459.118195,861.328735 455.049316,859.787598 450.933533,858.404297 
	C443.849091,856.023315 436.612122,854.088501 429.840118,850.816162 
	C417.561188,844.882629 411.346008,835.306274 412.737335,821.562561 
	C414.007568,809.015381 421.767090,801.156006 433.243011,797.718384 
	C449.204956,792.937073 464.513519,794.155579 477.405884,806.356262 
	C477.647644,806.585083 477.896790,806.811768 478.104919,807.069702 
	C481.488678,811.263672 485.848785,816.424194 483.592804,821.205078 
	C481.179749,826.318665 473.933807,826.066345 468.551971,827.392761 
	C465.684021,828.099609 465.236450,825.335999 464.335876,823.412415 
	C459.978394,814.105347 449.328796,810.211304 440.441681,814.642395 
	C432.354401,818.674744 431.811493,827.440979 439.366241,832.445984 
	C447.418030,837.780273 456.931763,839.411133 465.764008,842.765503 
	C475.559113,846.485596 483.181335,852.428467 486.744415,862.665894 
	C490.342285,873.003296 487.573944,882.122559 480.711823,890.000488 
	C464.714996,908.365295 428.214691,906.132141 414.418945,886.126160 
	C412.709106,883.646729 411.500458,880.947754 410.530853,878.079041 
	C409.313568,874.477844 410.262695,872.260498 414.336365,871.148438 
z"/>
<path fill="#000000" opacity="1.000000" stroke="none" 
	d="
M569.377075,891.994141 
	C569.345276,900.373596 569.345276,900.380188 561.568176,900.380859 
	C544.573975,900.382202 527.578247,900.252197 510.586517,900.456726 
	C506.091217,900.510864 504.549591,899.190857 504.577545,894.537720 
	C504.761719,863.882568 504.757050,833.225281 504.595825,802.569885 
	C504.572021,798.047791 505.865051,796.507141 510.508057,796.570435 
	C527.832275,796.806702 545.163513,796.801636 562.487976,796.573181 
	C567.225891,796.510742 568.521973,798.285828 568.402832,802.734497 
	C567.974487,818.733154 570.505981,816.143127 555.043762,816.356750 
	C547.047913,816.467285 539.047913,816.476746 531.052856,816.343872 
	C527.668030,816.287659 526.152039,817.481812 526.302307,820.990234 
	C526.480225,825.147888 526.484436,829.324951 526.303589,833.482239 
	C526.162476,836.725830 527.446777,837.948730 530.664307,837.911865 
	C539.659912,837.808716 548.657898,837.861694 557.654541,837.915527 
	C563.855591,837.952698 564.433044,838.408875 564.315002,844.344299 
	C564.042419,858.059143 567.100952,857.621094 551.444580,857.610535 
	C547.282471,857.607666 543.117493,857.721375 538.958801,857.898071 
	C534.992188,858.066589 531.019775,856.862549 526.418335,858.051086 
	C526.418335,864.726929 526.327454,871.499817 526.460449,878.268250 
	C526.518311,881.212830 528.995972,880.877258 530.943970,880.885620 
	C540.273987,880.925598 549.604309,880.931702 558.934387,880.904907 
	C571.554443,880.868652 569.145691,881.120422 569.377075,891.994141 
z"/>
<path fill="#000000" opacity="1.000000" stroke="none" 
	d="
M362.000061,796.659851 
	C371.996460,796.660645 381.495087,796.782532 390.988098,796.604309 
	C394.888336,796.531067 396.345825,798.028503 396.300537,801.872192 
	C396.096252,819.210205 398.091736,816.087402 382.194214,816.348633 
	C374.365936,816.477295 366.532288,816.475342 358.704346,816.341370 
	C355.494934,816.286438 354.156555,817.427063 354.304749,820.705322 
	C354.485138,824.695557 354.548431,828.714111 354.281250,832.694885 
	C354.020325,836.582520 355.401672,838.051086 359.372345,837.954041 
	C368.030457,837.742493 376.697723,837.847168 385.360596,837.909241 
	C391.478607,837.953125 392.457458,838.822266 392.302307,844.836304 
	C391.984650,857.149170 395.289642,857.787109 379.863953,857.709717 
	C371.579803,857.668091 363.295258,857.702271 354.378998,857.702271 
	C354.378998,864.665527 354.350342,871.274170 354.391174,877.882324 
	C354.411346,881.140259 356.873993,880.903564 359.039001,880.908325 
	C369.534912,880.931396 380.031128,880.883362 390.526855,880.935303 
	C396.897400,880.966797 397.353149,881.395142 397.286713,887.805054 
	C397.134857,902.459717 399.103729,900.251160 384.979706,900.356934 
	C369.486511,900.472961 353.989777,900.240601 338.498962,900.464722 
	C333.925690,900.530823 332.537659,899.046814 332.563843,894.477722 
	C332.739319,863.823792 332.745483,833.167786 332.564545,802.513977 
	C332.537292,797.903137 333.947205,796.396973 338.512238,796.581482 
	C346.163391,796.890625 353.836304,796.662292 362.000061,796.659851 
z"/>
</svg>