<svg xmlns="http://www.w3.org/2000/svg" viewBox="0 0 401.56 678.47">
<defs>
<style>.cls-1,.cls-5{fill:#00adee;}.cls-1,.cls-2,.cls-3,.cls-4{fill-rule:evenodd;}.cls-2{fill:#231f20;}.cls-3{fill:#282724;}.cls-4{fill:#282626;}</style>
</defs>
<title>RailTel</title>
<g id="Layer_2" data-name="Layer 2">
<g id="Layer_1-2" data-name="Layer 1">
<path class="cls-1" d="M259.83,132.16c4.11,1.86,21.29,6.89,31,11,28,11.89,55.8,28.6,68.42,57.62,19.43,44.63-6.42,97.88-23.14,130.92l11.61-12.6c3.87-4.43,7.34-9.14,11-13.79a217.8,217.8,0,0,0,19.64-30.5c23.92-45.57,21.13-71.21,
23.25-76.45V178.85l-2.73-20.3c-5.3-30.73-22.17-62.81-42.6-85.18a224.21,224.21,0,0,0-17.72-17.86C308.84,28.56,258.36,2,206.47.27c1.26,2.18,3.69,4.15,5.49,6.07,17.47,18.57,31.3,39.37,39.28,64.75,7.64,24.29,7.24,35.1,8.59,61.07Z"/>
<path class="cls-1" d="M0,185.17V207c.79,1.86,2.18,16.24,3,20.15A165.46,165.46,0,0,0,7.81,246C19.73,282.25,37,305.87,63.27,331.3,79.05,346.57,99.6,358.79,120,368.35c19.36,9.08,57.17,18,78.4,14.53-8.16,
0-5.46.63-15.84-10.27-21.61-22.72-39.4-54.8-45-85.93-3.13-17.37-3.23-30.38-3.4-49.29l-.34,14c-13.47-2.09-44.67-17.16-56.75-25-43.17-27.93-51.35-65.89-38.43-114A262.48,262.48,0,0,1,55.84,68.22c2-3.8,5.35-10,
6.54-13.55-4.91,3.62-17.52,19.87-21.89,25.71a217.71,217.71,0,0,0-33,64.08c-6.31,20-6.5,37-7.52,40.71Z"/>
<path class="cls-2" d="M134.14,237.39c.17,18.91.27,31.92,3.4,49.29,5.62,31.13,23.41,63.21,45,85.93,10.38,10.9,7.68,10.28,15.84,10.27l12.4-.18-7.27-7.88c-5.32-4.81-16.12-19.55-19.91-25.87-50.93-84.82,
8.5-172-22.7-267.3-4.4-13.41-12.88-28.78-21.25-40.21-2.3-3.13-4.42-5.39-6.66-8.41-1.47-2-13.15-15.3-15-15.48-1-.09-3.87,1.48-5.07,2.09l-5.44,3,8.28,8.25a70.82,70.82,0,0,1,7.82,8.89c16.69,22.28,24.14,46.45,23.13,76.65-.7,
21-3.16,39.94-6.15,60.25-2.7,18.29-6.53,42.08-6.39,60.71Z"/><path class="cls-2" d="M259.83,132.16c-1.35-26-.95-36.78-8.59-61.07-8-25.38-21.81-46.18-39.28-64.75-1.8-1.92-4.23-3.89-5.49-6.07l0-.27h-2.89L190.08.41c.85,1.57,
5.76,5.73,7.48,7.38,49.5,47.55,34.36,118.26,32,180.86-2.27,61.2,8.33,103.24,42.74,148.1L293.92,360c3.48-2.26,7.34-4.19,10.4-6.52a42.56,
42.56,0,0,0-4.21-4.09c-1.66-1.57-2.46-2.75-4.19-4.39-3.64-3.46-12.61-15-15.39-19.11-34.94-51.56-26.76-101.57-22.38-160.4.82-10.95.75-22.47,1.68-33.31Z"/>
<path class="cls-3" d="M85.7,479.77c1.25,27.07,6.85,31.71,32.37,31.78,10.67,0,5.84-8.14,5.61-8.38-2.43-2.53-10.55-1-14.68-1.45-10.52-1.19-10.76-13.71-10.44-22,9.07-.63,16.59-2.63,20.14-8.55,5-8.28,
2-14.78-.82-22.75l64.57-.16-.07,11.9c-11.07.43-10.07,3.82-15.29,6-8-8.81-29.49-11.81-38.59,2.45-8.79,13.77-.43,29.86,11.88,37.79,4,2.54,16.82,10.94,18.51,1.7,1-5.2-2.22-6.47-5.66-8.06-23.27-10.66-16.56-30.19-3.93-30,
4.81.09,7.86,2,11.08,3.55-1.2,4.16-5.46,6-4.22,12.22.79,3.94,5.21,7.31,9.49,3.19,4.79-4.62,6-15.13,16.77-16.95l0,29.31c-4.78,0-10.52,1.69-7.4,7.52,1.84,3.43,8.91,2.47,13.61,2.47,4.32,0,11.81,1,13.92-2.12a5.39,5.39,0,0,
0-.48-6.37c-1.63-1.59-4-1.48-6.61-1.51V448.34l46-.07c0,3.48.49,7.35-.57,10.43-3.54,2.06-15.08.46-20.3,1.25-16.89,2.53-21.55,26.91-6.09,41.36,18.77,17.54,53.91,2.11,48.34-10.06-1.65-3.61-4.41-3.26-8.6-2.9-.74.38-7.2,
13-22.14,10.45-18.12-3.09-17-26.62-7.73-29.23,8.6-2.42,27.24,3.42,29-4.22.7-3,.25-13.34.24-17l72.07.13,0,11.87c-9.27-.06-10,2.84-15.21,6-6.36-4.66-10.83-7.74-20.49-7.49a22.36,22.36,0,0,0-18.47,10c-8.89,13.81-.18,30.19,12.42,
38a63.72,63.72,0,0,0,9.05,5c4.54,1.74,8.78-.11,9.09-4.55.51-7.33-6.21-5-15.37-13.41C276,484,281,469.66,293.24,470.19c2.76.12,7.07,1.34,9.15,3.05l1.11,1.09c-1.95,3.31-5.35,6.24-4.28,11.74a5.86,5.86,0,0,0,3.68,4.44c9.35,3.69,
8.48-15.92,22.74-18.44l.07,29.36c-4.82,0-10.16,1.43-7.52,7.21,1.86,4.07,9.42,2.76,13.84,2.76,3.8,0,11.94,1.11,14-2.08a5.83,5.83,0,0,0-.54-6.37c-1.86-1.91-4-1.26-6.79-1.81l.07-52.57c3.6-.76,9.84.47,12.78-.59,3.22-1.17,4.39-6.14,
1.34-8.55-2.62-2.06-21.05-1-25.68-1L83,438.77c-3.45,0-10.18-.72-12.14,1.3a5,5,0,0,0,3,8.36c7.34.78,19.15-.06,27,0,3.74,0,5.35,1.61,7.19,6.3a10.77,10.77,0,0,1-1.46,10.81c-2.38,2.89-5,3.26-10.06,3.4-11.28.31-21.28-2.34-20.34,
6.34.55,5.09,4.67,4.36,9.54,4.51Z"/>
<path class="cls-2" d="M76.53,543.33c7.81-.08,17.15-.88,16.73,8.07-.4,8.59-8.9,7.34-16.72,7.6V543.33Zm.11,26.23a24.18,24.18,0,0,1,3,3.54L88.15,584c3.24,3.8,8,11.89,13.31,12.59,4,.52,
12.68-3.49,4.5-14.2-1.59-2.09-10.7-12.83-12.43-13.89,1.09-1.25-.12-.21,1.15-1a4.54,4.54,0,0,1,1.23-.57c2.42-.91,3.7-.8,6.51-3.14a16.55,16.55,0,0,0,5.43-7.54,21.2,21.2,0,0,0,
.47-11.35c-2.5-10.77-12.55-15.44-24.22-15.6-7.15-.1-19.23-1.92-21.77,4.64-1.62,4.16-1,44.38-.88,52,.29,15.1,11.32,10.83,13.13,8.26,3.23-4.59,1.67-18.09,2.06-24.63Z"/>
<path class="cls-2" d="M132.06,569.15c.63-3.17,6.88-22.5,8.28-24.23l7.36,24.29-15.64-.06Zm-4.31,14.22,24.25-.16c1.95,4,1.58,7.85,4.57,11.06a7.4,7.4,0,0,0,
11.11-.24c3.94-4.71-2.93-19-4.75-24.44-2.71-8.07-5.5-15.64-8.19-23.61s-4.43-18.15-14.06-18.29c-9.47-.13-11.64,9.43-14.43,17.38s-5.73,15.65-8.6,23.73c-2,5.61-8.69,19.58-5.46,24.58,2,3.14,7.22,5,10.68,1.15,2.83-3.14,
2.87-7.4,4.88-11.16Z"/>
<path class="cls-2" d="M299.7,581.49v-13.9c6.9,0,21.55,2.1,21.56-7s-14.07-7-21.56-7V543.32c7,0,20.16,1.55,22.67-4.33,1.72-4-.37-7.37-3.74-8.68-3.58-1.38-8.78-1-13-1-24.42,0-21-1.43-21,33.41,0,
6.73-.76,20.83.3,26.7.78,4.29,2.64,5.56,7.29,6.05,4.11.42,9.69.11,14,.11,7.15,0,20.49.63,16.71-9.68-2.33-6.36-15.85-3.93-23.17-4.41Z"/>
<path class="cls-2" d="M249.54,543.33c.12,7.66-.37,40.08.16,45.19.5,4.81,2.37,
8.12,7.42,8.14,10,0,7.53-14.9,7.53-22.62,0-10.21-.1-20.49,0-30.7,3.95-.05,9,.29,12.34-1.12a6.46,6.46,0,0,0,3.11-9c-3.06-6-16.11-4-23-4-6.56,0-20.37-1.64-23.05,3.92a6.54,6.54,0,0,0,3.14,9c3.33,1.36,8.43,1.07,12.34,1.1Z"/>
<path class="cls-2" d="M217.77,581.48c.2-8.79,1.45-46.33-2-51.25-1.95-2.78-12.72-6.73-13.08,8.22-.16,7-.54,48.77.71,52.68,2.12,6.6,15.56,4.45,22.46,4.46,4,0,8.29.28,11.75-1.15a6.25,
6.25,0,0,0,3.17-8.87c-3.17-6.23-16-3.59-23-4.09Z"/>
<path class="cls-2" d="M346.58,581.57c.12-8.76,0-17.62,0-26.39,0-6.37,1.08-20.58-2-24.95-2.09-3-12.8-6.48-13.09,8.22-.14,6.71-.5,49.17.69,52.67,2.25,6.65,15.57,4.46,22.49,
4.47,4,0,8.24.32,11.8-1.1a6.47,6.47,0,0,0,3.16-9C367,580,353,581.58,346.58,581.57Z"/>
<path class="cls-2" d="M180.55,528.1c-6.08,1.86-5.37,8.68-5.37,15.76v42.07c.16,6.48,2.32,12.42,9.86,10.41,2.87-.77,4-2.61,
4.7-5.59.94-3.87.67-46,.52-52.3-.16-6.5-2.37-12.59-9.71-10.35Z"/>
<path class="cls-3" d="M242.18,434.73l9.72,0c-1.67-12.61-17.09-34.4-27.68-33.9-4.48.22-10.66,7.08.46,12.15a30.13,30.13,0,0,1,4.94,3.16,41.62,41.62,0,0,1,7.85,
7.77c3.39,4.57,2.61,6.62,4.71,10.84Z"/>
<path class="cls-4" d="M102.48,434.9l10,.08c-2.53-13.21-16.86-34.62-27.86-33.92-4.3.28-7.24,5.16-4.25,9,1.19,1.53,7.56,4.71,9.53,6.13,6,4.37,10.86,9.3,12.53,18.71Z"/>
</g>
</g>
</svg>