<svg xmlns="http://www.w3.org/2000/svg" viewBox="0 0 401.56 678.47"><defs><style>.cls-1,.cls-5{fill:#00adee;}.cls-1,.cls-2,.cls-3,.cls-4{fill-rule:evenodd;}.cls-2{fill:#231f20;}.cls-3{fill:#282724;}.cls-4{fill:#282626;}</style></defs><title>RailTel</title><g id="Layer_2" data-name="Layer 2"><g id="Layer_1-2" data-name="Layer 1"><path class="cls-1" d="M259.83,132.16c4.11,1.86,21.29,6.89,31,11,28,11.89,55.8,28.6,68.42,57.62,19.43,44.63-6.42,97.88-23.14,130.92l11.61-12.6c3.87-4.43,7.34-9.14,11-13.79a217.8,217.8,0,0,0,19.64-30.5c23.92-45.57,21.13-71.21,23.25-76.45V178.85l-2.73-20.3c-5.3-30.73-22.17-62.81-42.6-85.18a224.21,224.21,0,0,0-17.72-17.86C308.84,28.56,258.36,2,206.47.27c1.26,2.18,3.69,4.15,5.49,6.07,17.47,18.57,31.3,39.37,39.28,64.75,7.64,24.29,7.24,35.1,8.59,61.07Z"/><path class="cls-1" d="M0,185.17V207c.79,1.86,2.18,16.24,3,20.15A165.46,165.46,0,0,0,7.81,246C19.73,282.25,37,305.87,63.27,331.3,79.05,346.57,99.6,358.79,120,368.35c19.36,9.08,57.17,18,78.4,14.53-8.16,0-5.46.63-15.84-10.27-21.61-22.72-39.4-54.8-45-85.93-3.13-17.37-3.23-30.38-3.4-49.29l-.34,14c-13.47-2.09-44.67-17.16-56.75-25-43.17-27.93-51.35-65.89-38.43-114A262.48,262.48,0,0,1,55.84,68.22c2-3.8,5.35-10,6.54-13.55-4.91,3.62-17.52,19.87-21.89,25.71a217.71,217.71,0,0,0-33,64.08c-6.31,20-6.5,37-7.52,40.71Z"/><path class="cls-2" d="M134.14,237.39c.17,18.91.27,31.92,3.4,49.29,5.62,31.13,23.41,63.21,45,85.93,10.38,10.9,7.68,10.28,15.84,10.27l12.4-.18-7.27-7.88c-5.32-4.81-16.12-19.55-19.91-25.87-50.93-84.82,8.5-172-22.7-267.3-4.4-13.41-12.88-28.78-21.25-40.21-2.3-3.13-4.42-5.39-6.66-8.41-1.47-2-13.15-15.3-15-15.48-1-.09-3.87,1.48-5.07,2.09l-5.44,3,8.28,8.25a70.82,70.82,0,0,1,7.82,8.89c16.69,22.28,24.14,46.45,23.13,76.65-.7,21-3.16,39.94-6.15,60.25-2.7,18.29-6.53,42.08-6.39,60.71Z"/><path class="cls-2" d="M259.83,132.16c-1.35-26-.95-36.78-8.59-61.07-8-25.38-21.81-46.18-39.28-64.75-1.8-1.92-4.23-3.89-5.49-6.07l0-.27h-2.89L190.08.41c.85,1.57,5.76,5.73,7.48,7.38,49.5,47.55,34.36,118.26,32,180.86-2.27,61.2,8.33,103.24,42.74,148.1L293.92,360c3.48-2.26,7.34-4.19,10.4-6.52a42.56,42.56,0,0,0-4.21-4.09c-1.66-1.57-2.46-2.75-4.19-4.39-3.64-3.46-12.61-15-15.39-19.11-34.94-51.56-26.76-101.57-22.38-160.4.82-10.95.75-22.47,1.68-33.31Z"/><path class="cls-3" d="M85.7,479.77c1.25,27.07,6.85,31.71,32.37,31.78,10.67,0,5.84-8.14,5.61-8.38-2.43-2.53-10.55-1-14.68-1.45-10.52-1.19-10.76-13.71-10.44-22,9.07-.63,16.59-2.63,20.14-8.55,5-8.28,2-14.78-.82-22.75l64.57-.16-.07,11.9c-11.07.43-10.07,3.82-15.29,6-8-8.81-29.49-11.81-38.59,2.45-8.79,13.77-.43,29.86,11.88,37.79,4,2.54,16.82,10.94,18.51,1.7,1-5.2-2.22-6.47-5.66-8.06-23.27-10.66-16.56-30.19-3.93-30,4.81.09,7.86,2,11.08,3.55-1.2,4.16-5.46,6-4.22,12.22.79,3.94,5.21,7.31,9.49,3.19,4.79-4.62,6-15.13,16.77-16.95l0,29.31c-4.78,0-10.52,1.69-7.4,7.52,1.84,3.43,8.91,2.47,13.61,2.47,4.32,0,11.81,1,13.92-2.12a5.39,5.39,0,0,0-.48-6.37c-1.63-1.59-4-1.48-6.61-1.51V448.34l46-.07c0,3.48.49,7.35-.57,10.43-3.54,2.06-15.08.46-20.3,1.25-16.89,2.53-21.55,26.91-6.09,41.36,18.77,17.54,53.91,2.11,48.34-10.06-1.65-3.61-4.41-3.26-8.6-2.9-.74.38-7.2,13-22.14,10.45-18.12-3.09-17-26.62-7.73-29.23,8.6-2.42,27.24,3.42,29-4.22.7-3,.25-13.34.24-17l72.07.13,0,11.87c-9.27-.06-10,2.84-15.21,6-6.36-4.66-10.83-7.74-20.49-7.49a22.36,22.36,0,0,0-18.47,10c-8.89,13.81-.18,30.19,12.42,38a63.72,63.72,0,0,0,9.05,5c4.54,1.74,8.78-.11,9.09-4.55.51-7.33-6.21-5-15.37-13.41C276,484,281,469.66,293.24,470.19c2.76.12,7.07,1.34,9.15,3.05l1.11,1.09c-1.95,3.31-5.35,6.24-4.28,11.74a5.86,5.86,0,0,0,3.68,4.44c9.35,3.69,8.48-15.92,22.74-18.44l.07,29.36c-4.82,0-10.16,1.43-7.52,7.21,1.86,4.07,9.42,2.76,13.84,2.76,3.8,0,11.94,1.11,14-2.08a5.83,5.83,0,0,0-.54-6.37c-1.86-1.91-4-1.26-6.79-1.81l.07-52.57c3.6-.76,9.84.47,12.78-.59,3.22-1.17,4.39-6.14,1.34-8.55-2.62-2.06-21.05-1-25.68-1L83,438.77c-3.45,0-10.18-.72-12.14,1.3a5,5,0,0,0,3,8.36c7.34.78,19.15-.06,27,0,3.74,0,5.35,1.61,7.19,6.3a10.77,10.77,0,0,1-1.46,10.81c-2.38,2.89-5,3.26-10.06,3.4-11.28.31-21.28-2.34-20.34,6.34.55,5.09,4.67,4.36,9.54,4.51Z"/><path class="cls-2" d="M76.53,543.33c7.81-.08,17.15-.88,16.73,8.07-.4,8.59-8.9,7.34-16.72,7.6V543.33Zm.11,26.23a24.18,24.18,0,0,1,3,3.54L88.15,584c3.24,3.8,8,11.89,13.31,12.59,4,.52,12.68-3.49,4.5-14.2-1.59-2.09-10.7-12.83-12.43-13.89,1.09-1.25-.12-.21,1.15-1a4.54,4.54,0,0,1,1.23-.57c2.42-.91,3.7-.8,6.51-3.14a16.55,16.55,0,0,0,5.43-7.54,21.2,21.2,0,0,0,.47-11.35c-2.5-10.77-12.55-15.44-24.22-15.6-7.15-.1-19.23-1.92-21.77,4.64-1.62,4.16-1,44.38-.88,52,.29,15.1,11.32,10.83,13.13,8.26,3.23-4.59,1.67-18.09,2.06-24.63Z"/><path class="cls-2" d="M132.06,569.15c.63-3.17,6.88-22.5,8.28-24.23l7.36,24.29-15.64-.06Zm-4.31,14.22,24.25-.16c1.95,4,1.58,7.85,4.57,11.06a7.4,7.4,0,0,0,11.11-.24c3.94-4.71-2.93-19-4.75-24.44-2.71-8.07-5.5-15.64-8.19-23.61s-4.43-18.15-14.06-18.29c-9.47-.13-11.64,9.43-14.43,17.38s-5.73,15.65-8.6,23.73c-2,5.61-8.69,19.58-5.46,24.58,2,3.14,7.22,5,10.68,1.15,2.83-3.14,2.87-7.4,4.88-11.16Z"/><path class="cls-2" d="M299.7,581.49v-13.9c6.9,0,21.55,2.1,21.56-7s-14.07-7-21.56-7V543.32c7,0,20.16,1.55,22.67-4.33,1.72-4-.37-7.37-3.74-8.68-3.58-1.38-8.78-1-13-1-24.42,0-21-1.43-21,33.41,0,6.73-.76,20.83.3,26.7.78,4.29,2.64,5.56,7.29,6.05,4.11.42,9.69.11,14,.11,7.15,0,20.49.63,16.71-9.68-2.33-6.36-15.85-3.93-23.17-4.41Z"/><path class="cls-2" d="M249.54,543.33c.12,7.66-.37,40.08.16,45.19.5,4.81,2.37,8.12,7.42,8.14,10,0,7.53-14.9,7.53-22.62,0-10.21-.1-20.49,0-30.7,3.95-.05,9,.29,12.34-1.12a6.46,6.46,0,0,0,3.11-9c-3.06-6-16.11-4-23-4-6.56,0-20.37-1.64-23.05,3.92a6.54,6.54,0,0,0,3.14,9c3.33,1.36,8.43,1.07,12.34,1.1Z"/><path class="cls-2" d="M217.77,581.48c.2-8.79,1.45-46.33-2-51.25-1.95-2.78-12.72-6.73-13.08,8.22-.16,7-.54,48.77.71,52.68,2.12,6.6,15.56,4.45,22.46,4.46,4,0,8.29.28,11.75-1.15a6.25,6.25,0,0,0,3.17-8.87c-3.17-6.23-16-3.59-23-4.09Z"/><path class="cls-2" d="M346.58,581.57c.12-8.76,0-17.62,0-26.39,0-6.37,1.08-20.58-2-24.95-2.09-3-12.8-6.48-13.09,8.22-.14,6.71-.5,49.17.69,52.67,2.25,6.65,15.57,4.46,22.49,4.47,4,0,8.24.32,11.8-1.1a6.47,6.47,0,0,0,3.16-9C367,580,353,581.58,346.58,581.57Z"/><path class="cls-2" d="M180.55,528.1c-6.08,1.86-5.37,8.68-5.37,15.76v42.07c.16,6.48,2.32,12.42,9.86,10.41,2.87-.77,4-2.61,4.7-5.59.94-3.87.67-46,.52-52.3-.16-6.5-2.37-12.59-9.71-10.35Z"/><path class="cls-3" d="M242.18,434.73l9.72,0c-1.67-12.61-17.09-34.4-27.68-33.9-4.48.22-10.66,7.08.46,12.15a30.13,30.13,0,0,1,4.94,3.16,41.62,41.62,0,0,1,7.85,7.77c3.39,4.57,2.61,6.62,4.71,10.84Z"/><path class="cls-4" d="M102.48,434.9l10,.08c-2.53-13.21-16.86-34.62-27.86-33.92-4.3.28-7.24,5.16-4.25,9,1.19,1.53,7.56,4.71,9.53,6.13,6,4.37,10.86,9.3,12.53,18.71Z"/><path class="cls-5" d="M74.8,637.85H70l-1.92-5H59.32l-1.81,5H52.82l8.53-21.91H66l8.77,21.91Zm-8.14-8.67-3-8.12-3,8.12Zm28,.62v-3.7h9.53v8.73a12.15,12.15,0,0,1-4,2.37,14.79,14.79,0,0,1-5.34,1,12.05,12.05,0,0,1-6-1.44A9.18,9.18,0,0,1,85,632.66a13.42,13.42,0,0,1-1.28-5.84,12.67,12.67,0,0,1,1.43-6.08,9.74,9.74,0,0,1,4.2-4.08,11.27,11.27,0,0,1,5.24-1.09,10.44,10.44,0,0,1,6.37,1.71,7.7,7.7,0,0,1,3,4.73l-4.39.82a4.69,4.69,0,0,0-1.75-2.55,5.26,5.26,0,0,0-3.19-.93,6,6,0,0,0-4.6,1.84,7.7,7.7,0,0,0-1.71,5.45c0,2.6.57,4.55,1.73,5.85a5.78,5.78,0,0,0,4.54,2,7.53,7.53,0,0,0,2.79-.55,9.22,9.22,0,0,0,2.39-1.32V629.8Zm12.61-.11a8.55,8.55,0,0,1,1-4.05,7.14,7.14,0,0,1,2.92-3,8.76,8.76,0,0,1,4.22-1,7.91,7.91,0,0,1,5.9,2.34,8.06,8.06,0,0,1,2.3,5.91,8.17,8.17,0,0,1-2.32,6,7.85,7.85,0,0,1-5.85,2.36,9.18,9.18,0,0,1-4.16-1,6.79,6.79,0,0,1-3-2.89,9.59,9.59,0,0,1-1-4.64Zm4.3.22a5.3,5.3,0,0,0,1.12,3.62,3.59,3.59,0,0,0,2.77,1.25,3.55,3.55,0,0,0,2.75-1.25,5.3,5.3,0,0,0,1.12-3.65,5.17,5.17,0,0,0-1.12-3.58A3.52,3.52,0,0,0,115.5,625a3.56,3.56,0,0,0-2.77,1.26,5.27,5.27,0,0,0-1.12,3.61Zm19.72,7.94L124.94,622h4.4l3,8.1.87,2.7c.23-.68.38-1.14.43-1.36l.45-1.34,3-8.1h4.32l-6.31,15.87Zm21.84-5.05,4.19.7a6.88,6.88,0,0,1-2.55,3.5,7.39,7.39,0,0,1-4.35,1.2c-2.76,0-4.8-.89-6.13-2.7a9.11,9.11,0,0,1-1.57-5.46,8.75,8.75,0,0,1,2.07-6.19,6.77,6.77,0,0,1,5.21-2.23,7.05,7.05,0,0,1,5.59,2.34q2,2.34,2,7.17H147.07a4.22,4.22,0,0,0,1,2.9,3.2,3.2,0,0,0,2.42,1,2.57,2.57,0,0,0,1.66-.54,3.23,3.23,0,0,0,1-1.73Zm.25-4.24a4.16,4.16,0,0,0-.94-2.78,2.91,2.91,0,0,0-2.19-.94,2.87,2.87,0,0,0-2.26,1,3.85,3.85,0,0,0-.89,2.72ZM165,637.85h-4.2V622h3.9v2.26a6.71,6.71,0,0,1,1.8-2.11,3.36,3.36,0,0,1,1.81-.51,5.34,5.34,0,0,1,2.77.8l-1.31,3.65a3.7,3.7,0,0,0-2-.68,2.36,2.36,0,0,0-1.5.48,3.31,3.31,0,0,0-1,1.76A25.22,25.22,0,0,0,165,633v4.9Zm22.32,0h-4.2v-8.1a12.57,12.57,0,0,0-.27-3.33,2.36,2.36,0,0,0-.88-1.17,2.45,2.45,0,0,0-1.45-.41,3.36,3.36,0,0,0-2,.59A3.11,3.11,0,0,0,177.4,627a14,14,0,0,0-.32,3.65v7.19h-4.2V622h3.9v2.33a6.5,6.5,0,0,1,7.77-2.19,4.25,4.25,0,0,1,1.74,1.28,4.61,4.61,0,0,1,.83,1.76,13.48,13.48,0,0,1,.23,2.83v9.86ZM191.29,622h3.87v2.16a6.24,6.24,0,0,1,5-2.52,5.32,5.32,0,0,1,2.64.63,4.85,4.85,0,0,1,1.84,1.89,7.51,7.51,0,0,1,2.25-1.89,5.54,5.54,0,0,1,2.59-.63,5.82,5.82,0,0,1,3,.71,4.28,4.28,0,0,1,1.8,2.08,9,9,0,0,1,.44,3.29v10.15h-4.2v-9.07a6.74,6.74,0,0,0-.43-3,2,2,0,0,0-1.79-.89,2.85,2.85,0,0,0-1.67.53,3.11,3.11,0,0,0-1.12,1.58,11.67,11.67,0,0,0-.34,3.28v7.62h-4.2v-8.7a12.15,12.15,0,0,0-.22-3,1.92,1.92,0,0,0-.69-1,2.29,2.29,0,0,0-1.28-.32,3.05,3.05,0,0,0-1.75.52,2.9,2.9,0,0,0-1.12,1.51,11.34,11.34,0,0,0-.33,3.27v7.71h-4.2V622ZM228,632.8l4.19.7a6.94,6.94,0,0,1-2.55,3.5,7.42,7.42,0,0,1-4.36,1.2c-2.76,0-4.8-.89-6.12-2.7a9,9,0,0,1-1.58-5.46,8.75,8.75,0,0,1,2.07-6.19,6.77,6.77,0,0,1,5.21-2.23,7,7,0,0,1,5.59,2.34q2,2.34,2,7.17H221.89a4.27,4.27,0,0,0,1,2.9,3.21,3.21,0,0,0,2.43,1,2.59,2.59,0,0,0,1.66-.54,3.36,3.36,0,0,0,1-1.73Zm.24-4.24a4.06,4.06,0,0,0-.94-2.78,3,3,0,0,0-4.45.06,3.89,3.89,0,0,0-.89,2.72Zm22,9.29h-4.19v-8.1a12.57,12.57,0,0,0-.27-3.33,2.42,2.42,0,0,0-.88-1.17,2.47,2.47,0,0,0-1.45-.41,3.33,3.33,0,0,0-2,.59,3,3,0,0,0-1.19,1.58,13.57,13.57,0,0,0-.32,3.65v7.19h-4.2V622h3.9v2.33a6.5,6.5,0,0,1,7.77-2.19,4.25,4.25,0,0,1,1.74,1.28,4.75,4.75,0,0,1,.82,1.76,12.83,12.83,0,0,1,.23,2.83v9.86ZM261.79,622v3.35h-2.86v6.39A15.26,15.26,0,0,0,259,634a.93.93,0,0,0,.37.53,1.27,1.27,0,0,0,.71.21,5.47,5.47,0,0,0,1.69-.41l.36,3.26a8.33,8.33,0,0,1-3.32.62,5.12,5.12,0,0,1-2-.38,3,3,0,0,1-1.34-1,3.8,3.8,0,0,1-.59-1.64,20.42,20.42,0,0,1-.13-3v-6.91h-1.93V622h1.93v-3.15l4.21-2.45V622Zm10.45,7.71a8.67,8.67,0,0,1,1-4.05,7.14,7.14,0,0,1,2.92-3,8.77,8.77,0,0,1,4.23-1,7.94,7.94,0,0,1,5.9,2.34,8.09,8.09,0,0,1,2.29,5.91,8.21,8.21,0,0,1-2.31,6,7.88,7.88,0,0,1-5.86,2.36,9.14,9.14,0,0,1-4.15-1,6.76,6.76,0,0,1-3-2.89,9.7,9.7,0,0,1-1-4.64Zm4.3.22a5.2,5.2,0,0,0,1.13,3.62,3.66,3.66,0,0,0,5.51,0,5.3,5.3,0,0,0,1.12-3.65,5.17,5.17,0,0,0-1.12-3.58,3.64,3.64,0,0,0-5.51,0,5.18,5.18,0,0,0-1.13,3.61ZM290.06,622h2.33v-1.19a8,8,0,0,1,.43-3,3.39,3.39,0,0,1,1.57-1.61,6,6,0,0,1,2.89-.62,11.64,11.64,0,0,1,3.51.54l-.57,2.93a7.65,7.65,0,0,0-1.92-.24,1.73,1.73,0,0,0-1.31.42,2.45,2.45,0,0,0-.39,1.64V622h3.13v3.3H296.6v12.57h-4.21V625.28h-2.33V622Zm20.43,15.87V615.94h4.42v21.91Zm23,0h-4.2v-8.1a12.57,12.57,0,0,0-.27-3.33,2.36,2.36,0,0,0-.88-1.17,2.45,2.45,0,0,0-1.45-.41,3.36,3.36,0,0,0-2,.59,3.11,3.11,0,0,0-1.19,1.58,14,14,0,0,0-.32,3.65v7.19h-4.19V622H323v2.33a6.5,6.5,0,0,1,7.77-2.19,4.25,4.25,0,0,1,1.74,1.28,4.61,4.61,0,0,1,.83,1.76,13.48,13.48,0,0,1,.23,2.83v9.86Zm18.81,0h-3.9v-2.33a6.33,6.33,0,0,1-2.29,2,6,6,0,0,1-2.67.66,6,6,0,0,1-4.69-2.2,9,9,0,0,1-2-6.14c0-2.7.64-4.74,1.9-6.14a6.19,6.19,0,0,1,4.8-2.1,6,6,0,0,1,4.6,2.21v-7.89h4.2v21.91Zm-11.21-8.28a7.27,7.27,0,0,0,.71,3.68,3.16,3.16,0,0,0,2.83,1.64,3.13,3.13,0,0,0,2.47-1.23,5.73,5.73,0,0,0,1-3.68,6.26,6.26,0,0,0-1-3.94,3.13,3.13,0,0,0-2.53-1.2,3.17,3.17,0,0,0-2.5,1.18,5.37,5.37,0,0,0-1,3.55Zm15.35-9.74v-3.89h4.2v3.89Zm0,18V622h4.2v15.87Zm11.64-11-3.82-.69a6,6,0,0,1,2.21-3.4,8.09,8.09,0,0,1,4.67-1.11,9.93,9.93,0,0,1,4.18.67A4.19,4.19,0,0,1,377.3,624a8.67,8.67,0,0,1,.56,3.75l-.05,4.91a16.31,16.31,0,0,0,.21,3.08,8.81,8.81,0,0,0,.75,2.13h-4.16c-.11-.28-.24-.7-.4-1.24-.07-.25-.12-.42-.15-.5a7.76,7.76,0,0,1-2.3,1.58,6.71,6.71,0,0,1-2.61.51,5.44,5.44,0,0,1-3.87-1.32,4.44,4.44,0,0,1-1.41-3.37,4.48,4.48,0,0,1,.65-2.39,4.11,4.11,0,0,1,1.79-1.61,14,14,0,0,1,3.35-1,24.08,24.08,0,0,0,4.07-1v-.43a2.16,2.16,0,0,0-.6-1.72,3.56,3.56,0,0,0-2.25-.51,3,3,0,0,0-1.75.44,3,3,0,0,0-1,1.54Zm5.61,3.41c-.54.18-1.39.39-2.55.64a7.72,7.72,0,0,0-2.29.73,1.74,1.74,0,0,0-.82,1.48,2.06,2.06,0,0,0,.65,1.52,2.32,2.32,0,0,0,1.68.65,3.64,3.64,0,0,0,2.17-.75,2.58,2.58,0,0,0,1-1.39,8.31,8.31,0,0,0,.16-2v-.84Zm-244.48,19.9h4.42V662a24.3,24.3,0,0,0,.17,3.66,3.5,3.5,0,0,0,1.35,2.16,4.73,4.73,0,0,0,2.92.81,4.48,4.48,0,0,0,2.84-.76A3.07,3.07,0,0,0,142.1,666a24.77,24.77,0,0,0,.19-3.72V650.13h4.43v11.5a29.56,29.56,0,0,1-.36,5.58A6.3,6.3,0,0,1,145,670a6.83,6.83,0,0,1-2.58,1.78,11.28,11.28,0,0,1-4.22.66,12,12,0,0,1-4.75-.72,6.83,6.83,0,0,1-2.56-1.88,6,6,0,0,1-1.24-2.43,26.42,26.42,0,0,1-.44-5.56V650.13ZM165.78,672h-4.2v-8.1a12.43,12.43,0,0,0-.27-3.32,2.43,2.43,0,0,0-.87-1.18A2.58,2.58,0,0,0,159,659a3.3,3.3,0,0,0-1.95.59,3,3,0,0,0-1.19,1.59,13.43,13.43,0,0,0-.32,3.64V672h-4.2V656.17h3.89v2.33a6.55,6.55,0,0,1,7.78-2.2,4.39,4.39,0,0,1,1.74,1.28,4.64,4.64,0,0,1,.82,1.77,12.79,12.79,0,0,1,.23,2.82V672Zm18.81,0h-3.9V669.7a6.29,6.29,0,0,1-2.29,2,5.92,5.92,0,0,1-2.67.66,6,6,0,0,1-4.68-2.21,8.92,8.92,0,0,1-2-6.14c0-2.69.63-4.74,1.89-6.13a6.2,6.2,0,0,1,4.8-2.1,6,6,0,0,1,4.6,2.21v-7.89h4.2V672Zm-11.21-8.28a7.24,7.24,0,0,0,.71,3.68,3.17,3.17,0,0,0,2.84,1.64,3.08,3.08,0,0,0,2.46-1.23,5.67,5.67,0,0,0,1-3.68,6.29,6.29,0,0,0-1-3.94,3.16,3.16,0,0,0-2.54-1.2,3.11,3.11,0,0,0-2.49,1.19,5.3,5.3,0,0,0-1,3.54ZM197.91,667l4.19.7a6.91,6.91,0,0,1-2.55,3.51,7.48,7.48,0,0,1-4.35,1.2q-4.14,0-6.13-2.7a9.15,9.15,0,0,1-1.57-5.47,8.75,8.75,0,0,1,2.07-6.18,6.77,6.77,0,0,1,5.21-2.23,7,7,0,0,1,5.59,2.33q2,2.34,2,7.17H191.81a4.2,4.2,0,0,0,1,2.9,3.16,3.16,0,0,0,2.42,1,2.62,2.62,0,0,0,1.66-.53,3.3,3.3,0,0,0,1-1.74Zm.25-4.24a4.11,4.11,0,0,0-.94-2.77,3,3,0,0,0-4.45,0,3.85,3.85,0,0,0-.89,2.72ZM209.77,672h-4.2V656.17h3.9v2.25a7,7,0,0,1,1.8-2.11,3.35,3.35,0,0,1,1.81-.5,5.27,5.27,0,0,1,2.76.79l-1.3,3.66a3.64,3.64,0,0,0-2-.69,2.31,2.31,0,0,0-1.5.49,3.27,3.27,0,0,0-1,1.75,25.28,25.28,0,0,0-.35,5.32V672Zm15.16-15.86v3.34h-2.87v6.4a16.89,16.89,0,0,0,.08,2.26.91.91,0,0,0,.38.53,1.17,1.17,0,0,0,.71.21,5.69,5.69,0,0,0,1.69-.4l.36,3.25a8.36,8.36,0,0,1-3.32.63,5.35,5.35,0,0,1-2.05-.38,2.86,2.86,0,0,1-1.33-1,3.8,3.8,0,0,1-.6-1.64,20.34,20.34,0,0,1-.13-3v-6.92h-1.93v-3.34h1.93V653l4.21-2.45v5.61Zm6,4.83-3.81-.68a5.92,5.92,0,0,1,2.21-3.41,8.16,8.16,0,0,1,4.66-1.1,10.14,10.14,0,0,1,4.19.66,4.23,4.23,0,0,1,1.93,1.69,8.7,8.7,0,0,1,.56,3.76l0,4.9a16.69,16.69,0,0,0,.2,3.09,8.8,8.8,0,0,0,.76,2.12h-4.16a12.33,12.33,0,0,1-.4-1.24c-.07-.25-.12-.41-.15-.49a7.85,7.85,0,0,1-2.3,1.57,6.59,6.59,0,0,1-2.62.52,5.39,5.39,0,0,1-3.86-1.33,4.42,4.42,0,0,1-1.41-3.36,4.51,4.51,0,0,1,.64-2.4,4.2,4.2,0,0,1,1.8-1.61,14.33,14.33,0,0,1,3.34-1,23.06,23.06,0,0,0,4.08-1v-.42a2.18,2.18,0,0,0-.6-1.73,3.6,3.6,0,0,0-2.25-.51,2.53,2.53,0,0,0-2.77,2Zm5.62,3.41c-.54.18-1.39.39-2.56.64a8.4,8.4,0,0,0-2.28.73,1.77,1.77,0,0,0-.82,1.48,2.08,2.08,0,0,0,.65,1.53,2.3,2.3,0,0,0,1.68.64,3.69,3.69,0,0,0,2.17-.74,2.66,2.66,0,0,0,1-1.39,8.41,8.41,0,0,0,.16-2v-.84Zm8.11,7.62v-21.9h4.2v11.62l4.91-5.58H259L253.57,662,259.38,672h-4.52l-4-7.12-2,2V672Zm17.17-18v-3.88h4.2V654Zm0,18V656.17h4.2V672Zm22.94,0h-4.2v-8.1a12.43,12.43,0,0,0-.27-3.32,2.45,2.45,0,0,0-.88-1.18A2.55,2.55,0,0,0,278,659a3.36,3.36,0,0,0-2,.59,3,3,0,0,0-1.19,1.59,13.87,13.87,0,0,0-.32,3.64V672h-4.2V656.17h3.9v2.33a6.54,6.54,0,0,1,7.77-2.2,4.25,4.25,0,0,1,1.74,1.28,4.64,4.64,0,0,1,.82,1.77,12.68,12.68,0,0,1,.24,2.82V672Zm3.87,1.05,4.79.58a1.63,1.63,0,0,0,.55,1.15,3.15,3.15,0,0,0,1.88.45,4.78,4.78,0,0,0,2.47-.5,2,2,0,0,0,.84-1,6.48,6.48,0,0,0,.19-1.94v-2.31a5.68,5.68,0,0,1-4.75,2.57,5.87,5.87,0,0,1-5.07-2.7,9.26,9.26,0,0,1-1.46-5.32,8.77,8.77,0,0,1,1.92-6.1,6.21,6.21,0,0,1,4.78-2.1,5.79,5.79,0,0,1,4.85,2.58v-2.22h3.93v14.24a14.13,14.13,0,0,1-.46,4.19,5.18,5.18,0,0,1-1.3,2.18,5.82,5.82,0,0,1-2.23,1.24,11.82,11.82,0,0,1-3.54.45q-4,0-5.72-1.38a4.32,4.32,0,0,1-1.69-3.5,4.79,4.79,0,0,1,0-.51Zm3.74-9.31a5.75,5.75,0,0,0,1,3.7,3,3,0,0,0,2.41,1.17,3.36,3.36,0,0,0,2.61-1.2,5.3,5.3,0,0,0,1.06-3.57,5.5,5.5,0,0,0-1-3.65,3.19,3.19,0,0,0-2.57-1.2,3.11,3.11,0,0,0-2.49,1.17,5.52,5.52,0,0,0-1,3.58Z"/></g></g></svg>